#!OML:ASF F:\VICON\USERDATA\INSTALL\SteveWalk\SteveWalk.ASF
:FULLY-SPECIFIED
:DEGREES
392
root 0.148924 16.1469 40.5889 17.4045 2.65382 -0.401474
lowerback -16.1592 -0.091617 1.06773
upperback -5.6718 -0.362362 1.98569
thorax 3.03218 -0.169035 1.41595
lowerneck -3.52517 -0.376695 0.197894
upperneck 10.2998 -0.135797 -3.80048
head 3.99061 -0.226793 -1.30798
rclavicle -8.99501e-015 -1.43125e-014
rhumerus -27.1727 -12.4721 -81.6427
rradius 26.0984
rwrist -3.66352
rhand -17.0783 -34.6724
rfingers 7.12502
rthumb 9.15977 -64.4535
lclavicle -8.99501e-015 -1.43125e-014
lhumerus -43.1935 31.7966 65.0848
lradius 11.209
lwrist -41.8075
lhand -10.4973 -15.7462
lfingers 7.12502
lthumb 15.5048 13.6521
rfemur -26.2306 -3.89695 25.7294
rtibia 35.5913
rfoot -24.5936 6.99777
rtoes -10.4916
lfemur -46.4887 3.73163 -22.0253
ltibia 60.8775
lfoot -6.96991 4.46241
ltoes -8.10675
393
root 0.153104 16.1476 40.7762 17.4959 2.03745 -0.203465
lowerback -16.1798 0.00812996 0.730031
upperback -5.65553 -0.177148 1.89525
thorax 3.05793 -0.0762135 1.54621
lowerneck -3.54584 -0.326348 0.122171
upperneck 10.3508 -0.0638967 -3.76714
head 4.01424 -0.193529 -1.28092
rclavicle -4.87022e-015 -5.56597e-015
rhumerus -26.1162 -10.1047 -82.7931
rradius 27.6745
rwrist -5.53637
rhand -16.8026 -34.9223
rfingers 7.12502
rthumb 9.42586 -64.6915
lclavicle -4.87022e-015 -5.56597e-015
lhumerus -47.7328 36.908 58.1821
lradius 10.3092
lwrist -51.0366
lhand -9.03357 -15.6425
lfingers 7.12502
lthumb 16.9141 13.641
rfemur -25.4909 -4.10127 25.4499
rtibia 35.3699
rfoot -24.6183 8.18999
rtoes -6.1687
lfemur -46.9969 3.78675 -22.3229
ltibia 58.1054
lfoot -7.3915 5.26842
ltoes -8.78003
394
root 0.151782 16.142 40.9647 17.514 1.50693 -0.437821
lowerback -16.0663 0.180415 0.777495
upperback -5.67923 0.0430556 1.91909
thorax 2.96769 0.0326983 1.58403
lowerneck -3.49204 -0.325748 0.00650904
upperneck 10.3433 -0.0651756 -3.67065
head 4.00006 -0.193858 -1.22736
rclavicle -3.42904e-015 -2.06736e-014
rhumerus -25.2243 -7.90327 -83.7288
rradius 29.1443
rwrist -7.27838
rhand -16.3913 -35.2616
rfingers 7.12502
rthumb 9.82269 -65.0125
lclavicle -3.42904e-015 -2.06736e-014
lhumerus -48.8482 36.763 57.4051
lradius 9.57222
lwrist -52.9954
lhand -7.6168 -14.4845
lfingers 7.12502
lthumb 18.2775 14.6768
rfemur -24.6031 -3.97814 25.6149
rtibia 35.0824
rfoot -24.9471 8.68086
rtoes -4.52181
lfemur -47.381 4.00484 -22.1033
ltibia 55.143
lfoot -7.86592 6.06558
ltoes -8.1779
395
root 0.15796 16.1346 41.1474 17.4594 0.982979 -0.455946
lowerback -15.6241 0.309381 0.734686
upperback -5.74818 0.23114 1.85126
thorax 2.65619 0.12597 1.56637
lowerneck -3.49283 -0.266769 -0.0038138
upperneck 10.3004 0.00806108 -3.61548
head 3.98618 -0.155195 -1.20316
rclavicle 6.07536e-015 5.56597e-015
rhumerus -24.3808 -5.91176 -84.5411
rradius 30.5046
rwrist -8.68535
rhand -15.9687 -35.6258
rfingers 7.12502
rthumb 10.2304 -65.357
lclavicle 6.07536e-015 5.56597e-015
lhumerus -50.0726 36.5425 56.4546
lradius 8.9328
lwrist -54.3935
lhand -6.38446 -13.4438
lfingers 7.12502
lthumb 19.4627 15.6021
rfemur -23.5519 -3.99441 25.4972
rtibia 34.6969
rfoot -25.4397 8.8246
rtoes -5.09326
lfemur -47.5023 4.14084 -22.1311
ltibia 51.9174
lfoot -7.85756 6.96905
ltoes -9.98507
396
root 0.166272 16.126 41.3196 17.3642 0.353947 -0.392486
lowerback -14.6335 0.402073 0.563062
upperback -6.06142 0.402442 1.79741
thorax 1.79507 0.214351 1.62326
lowerneck -3.37114 -0.151905 0.0545375
upperneck 10.4294 0.163543 -3.63895
head 4.01196 -0.0775221 -1.21521
rclavicle -3.95085e-015 -3.18055e-015
rhumerus -23.9144 -4.00298 -85.2437
rradius 31.8316
rwrist -9.91156
rhand -16.1801 -34.7575
rfingers 7.12502
rthumb 10.0264 -64.4987
lclavicle -3.95085e-015 -3.18055e-015
lhumerus -51.9695 36.0973 55.0767
lradius 8.55691
lwrist -55.3515
lhand -5.43559 -12.4887
lfingers 7.12502
lthumb 20.3748 16.4624
rfemur -22.5009 -3.98401 25.2506
rtibia 34.246
rfoot -25.6645 9.0899
rtoes -5.16836
lfemur -47.5353 4.22758 -22.1811
ltibia 48.526
lfoot -7.61069 7.80045
ltoes -12.2933
397
root 0.177597 16.1272 41.5199 17.246 -0.321115 -0.0631093
lowerback -14.5086 0.468931 0.149627
upperback -5.96441 0.548924 1.66275
thorax 1.8245 0.290551 1.73825
lowerneck -3.36945 -0.0821256 0.0897969
upperneck 10.3412 0.254565 -3.66429
head 3.9826 -0.0313491 -1.22487
rclavicle -1.6027e-015 1.59028e-015
rhumerus -22.9422 -2.29804 -85.8817
rradius 33.0267
rwrist -10.8863
rhand -16.4736 -33.6557
rfingers 7.12502
rthumb 9.74328 -63.4104
lclavicle -1.6027e-015 1.59028e-015
lhumerus -53.5896 35.7577 53.8889
lradius 8.5768
lwrist -56.2231
lhand -4.57798 -11.8645
lfingers 7.12502
lthumb 21.1989 16.9964
rfemur -21.2872 -4.44471 24.6781
rtibia 33.7146
rfoot -26.0448 9.69897
rtoes -6.41678
lfemur -47.2774 4.18369 -22.4351
ltibia 44.9186
lfoot -6.93061 8.33408
ltoes -12.0386
398
root 0.181298 16.1201 41.725 17.1887 -1.0786 -0.312314
lowerback -14.5415 0.66351 0.173105
upperback -5.85821 0.797525 1.70713
thorax 1.94583 0.413169 1.812
lowerneck -3.35467 0.00767149 0.250018
upperneck 10.2072 0.376967 -3.83886
head 3.93722 0.0293783 -1.30494
rclavicle -1.46107e-014 -3.18055e-015
rhumerus -22.0379 -0.949488 -86.2703
rradius 34.4798
rwrist -10.8331
rhand -15.8164 -34.2816
rfingers 7.12502
rthumb 10.3773 -64.0055
lclavicle -1.46107e-014 -3.18055e-015
lhumerus -55.1556 35.3372 52.7498
lradius 8.6641
lwrist -57.2003
lhand -3.72333 -11.3754
lfingers 7.12502
lthumb 22.0196 17.3911
rfemur -20.1753 -4.3585 24.6802
rtibia 33.1219
rfoot -26.1096 10.5405
rtoes -6.13164
lfemur -47.0057 4.28514 -21.9387
ltibia 41.1831
lfoot -5.53621 8.68599
ltoes -8.96336
399
root 0.189332 16.119 41.9363 17.2408 -1.68757 -0.734158
lowerback -14.7897 0.859326 0.396294
upperback -5.7343 1.01374 1.8481
thorax 2.20289 0.517675 1.87423
lowerneck -3.45389 0.0693192 0.24572
upperneck 10.1231 0.469459 -3.95009
head 3.93023 0.0700761 -1.33708
rclavicle -5.67779e-015 7.95139e-015
rhumerus -21.165 0.881497 -86.6477
rradius 35.6641
rwrist -12.6228
rhand -17.9933 -31.6548
rfingers 7.12502
rthumb 8.27679 -61.4727
lclavicle -5.67779e-015 7.95139e-015
lhumerus -56.586 34.9938 51.8067
lradius 8.45853
lwrist -58.041
lhand -3.28025 -11.0996
lfingers 7.12502
lthumb 22.445 17.6162
rfemur -18.9539 -4.40368 24.8656
rtibia 31.9808
rfoot -25.6355 12.024
rtoes -3.69526
lfemur -46.8059 4.21828 -21.1315
ltibia 37.5574
lfoot -6.36208 9.7862
ltoes -15.3248
